<?xml version="1.0" encoding="utf-8"?>
<!-- Generator: Adobe Illustrator 25.2.1, SVG Export Plug-In . SVG Version: 6.00 Build 0)  -->
<svg version="1.1" id="Capa_1" xmlns="http://www.w3.org/2000/svg" xmlns:xlink="http://www.w3.org/1999/xlink" x="0px" y="0px"
	 viewBox="0 0 48 48" style="enable-background:new 0 0 48 48;" xml:space="preserve">
<style type="text/css">
	.st0{fill:#FFFFFF;}
</style>
<path class="st0" d="M28.6,24c0,2.5-2.1,4.6-4.6,4.6s-4.6-2.1-4.6-4.6s2.1-4.6,4.6-4.6S28.6,21.5,28.6,24z"/>
<path class="st0" d="M34.7,15.9c-0.2-0.6-0.6-1.1-1-1.6c-0.4-0.5-1-0.8-1.6-1c-0.5-0.2-1.2-0.4-2.6-0.5c-1.5-0.1-1.9-0.1-5.6-0.1
	c-3.7,0-4.1,0-5.6,0.1c-1.3,0.1-2.1,0.3-2.6,0.5c-0.6,0.2-1.1,0.6-1.6,1c-0.5,0.4-0.8,1-1,1.6c-0.2,0.5-0.4,1.2-0.5,2.6
	c-0.1,1.5-0.1,1.9-0.1,5.6c0,3.7,0,4.1,0.1,5.6c0.1,1.3,0.3,2.1,0.5,2.6c0.2,0.6,0.6,1.1,1,1.6c0.4,0.5,1,0.8,1.6,1
	c0.5,0.2,1.2,0.4,2.6,0.5c1.5,0.1,1.9,0.1,5.6,0.1c3.7,0,4.1,0,5.6-0.1c1.3-0.1,2.1-0.3,2.6-0.5c1.2-0.5,2.2-1.4,2.6-2.6
	c0.2-0.5,0.4-1.2,0.5-2.6c0.1-1.5,0.1-1.9,0.1-5.6c0-3.7,0-4.1-0.1-5.6C35.2,17.1,34.9,16.4,34.7,15.9z M24,31.1
	c-3.9,0-7.1-3.2-7.1-7.1s3.2-7.1,7.1-7.1c3.9,0,7.1,3.2,7.1,7.1S27.9,31.1,24,31.1z M31.4,18.3c-0.9,0-1.7-0.7-1.7-1.7
	s0.7-1.7,1.7-1.7s1.7,0.7,1.7,1.7C33,17.6,32.3,18.3,31.4,18.3z"/>
<path class="st0" d="M24,0C10.7,0,0,10.7,0,24s10.7,24,24,24s24-10.7,24-24S37.3,0,24,0z M37.7,29.7c-0.1,1.5-0.3,2.5-0.6,3.3
	c-0.7,1.9-2.2,3.3-4,4c-0.9,0.3-1.9,0.6-3.3,0.6c-1.5,0.1-1.9,0.1-5.7,0.1c-3.7,0-4.2,0-5.7-0.1c-1.5-0.1-2.5-0.3-3.3-0.6
	c-0.9-0.3-1.8-0.9-2.4-1.6c-0.7-0.7-1.2-1.5-1.6-2.4c-0.3-0.9-0.6-1.9-0.6-3.3c-0.1-1.5-0.1-1.9-0.1-5.7s0-4.2,0.1-5.7
	c0.1-1.5,0.3-2.5,0.6-3.3c0.3-0.9,0.9-1.8,1.6-2.4c0.7-0.7,1.5-1.2,2.4-1.6c0.9-0.3,1.9-0.6,3.3-0.6c1.5-0.1,1.9-0.1,5.7-0.1
	s4.2,0,5.7,0.1c1.5,0.1,2.5,0.3,3.3,0.6c0.9,0.3,1.8,0.9,2.4,1.6c0.7,0.7,1.2,1.5,1.6,2.4c0.3,0.9,0.6,1.9,0.6,3.3
	c0.1,1.5,0.1,1.9,0.1,5.7S37.8,28.2,37.7,29.7z"/>
</svg>
