<?xml version="1.0" encoding="utf-8"?>
<!-- Generator: Adobe Illustrator 25.2.1, SVG Export Plug-In . SVG Version: 6.00 Build 0)  -->
<svg version="1.1" id="Capa_1" xmlns="http://www.w3.org/2000/svg" xmlns:xlink="http://www.w3.org/1999/xlink" x="0px" y="0px"
	 viewBox="0 0 48 48" style="enable-background:new 0 0 48 48;" xml:space="preserve">
<style type="text/css">
	.st0{fill:#FFFFFF;}
</style>
<path class="st0" d="M24,0C10.7,0,0,10.7,0,24s10.7,24,24,24s24-10.7,24-24S37.3,0,24,0z M17,36.3h-5.8V18.7H17V36.3z M14.1,16.3
	L14.1,16.3c-2,0-3.3-1.4-3.3-3c0-1.7,1.3-3,3.3-3s3.2,1.3,3.3,3C17.4,14.9,16.1,16.3,14.1,16.3z M38.1,36.3h-5.8v-9.4
	c0-2.4-0.8-4-3-4c-1.6,0-2.6,1.1-3,2.1c-0.2,0.4-0.2,0.9-0.2,1.4v9.8h-5.8c0,0,0.1-15.9,0-17.6h5.8v2.5c0.8-1.2,2.2-2.9,5.3-2.9
	c3.8,0,6.7,2.5,6.7,7.9V36.3z"/>
</svg>
