<svg width="48" height="48" viewBox="0 0 48 48" fill="none" xmlns="http://www.w3.org/2000/svg">
<circle cx="24" cy="24" r="24" fill="#33758A"/>
<path fill-rule="evenodd" clip-rule="evenodd" d="M24.2515 10.9647C22.8775 9.86566 20.9162 9.65757 19.3006 10.5904C17.1957 11.8056 16.4745 14.4971 17.6898 16.602L17.6899 16.6022L18.5134 18.5035L12.6597 26.3906C12.3172 26.755 12.011 27.1644 11.7501 27.6162C9.92724 30.7735 11.009 34.8108 14.1663 36.6337C17.3237 38.4565 21.3609 37.3748 23.1838 34.2174C23.4446 33.7656 23.646 33.2958 23.7903 32.817L24.2515 31.7522L24.7128 32.8171C24.8571 33.2958 25.0585 33.7657 25.3193 34.2175C27.1422 37.3748 31.1794 38.4566 34.3367 36.6337C37.4941 34.8108 38.5758 30.7736 36.753 27.6163C36.4921 27.1644 36.1859 26.7551 35.8433 26.3907L29.9897 18.5035L30.8133 16.602L30.8132 16.602C32.0285 14.4971 31.3073 11.8056 29.2024 10.5903C27.5868 9.65753 25.6255 9.86563 24.2515 10.9647Z" fill="white"/>
</svg>
