<svg width="47" height="27" viewBox="0 0 47 27" fill="none" xmlns="http://www.w3.org/2000/svg">
<path d="M8.82 17.46C8.58 18 7.89 18.63 7.02 18.63C5.55 18.63 4.77 17.79 4.77 15.75V6.75H8.22L8.34 6.3H4.77V1.65L1.59 2.16V6.3H0L0.09 6.75H1.59V15.84C1.59 19.47 2.97 20.43 5.22 20.43C7.11 20.43 8.7 19.05 9.21 17.7L8.82 17.46Z" fill="#33758A"/>
<path d="M13.9788 12.51C13.9788 9.18 15.5388 6.48 17.2788 6.48C18.8088 6.48 20.3988 8.43 20.3988 12.51H13.9788ZM22.6188 16.35C21.9588 17.79 19.7088 18.63 17.9688 18.36C15.8088 18.03 14.1588 16.44 13.9788 12.96H23.5188C23.5188 8.25 21.3288 6.03 17.3988 6.03C13.4688 6.03 10.6188 9 10.6188 13.32C10.6188 17.07 13.3188 20.43 17.1288 20.43C20.9088 20.43 22.6488 18.03 23.0388 16.56L22.6188 16.35Z" fill="#33758A"/>
<path d="M28.4039 3.57C29.3939 3.57 30.2339 2.79 30.2339 1.8C30.2339 0.780001 29.3939 0 28.4039 0C27.4439 0 26.6339 0.780001 26.6339 1.8C26.6339 2.79 27.4439 3.57 28.4039 3.57ZM27.1139 19.35C27.1139 19.89 27.1139 25.95 24.9839 26.55V27C27.9539 26.25 30.2639 24.33 30.2639 18.66V6.03L25.6139 7.05V7.5C26.8739 8.01 27.1139 8.55 27.1139 9.57V19.35Z" fill="#33758A"/>
<path d="M40.5062 12.93C40.5062 12.93 40.5062 17.13 40.5062 17.19C40.2362 17.91 39.5162 18.84 38.2262 18.84C36.3362 18.84 36.0662 17.1 36.0662 16.68C36.0662 15 37.2962 13.65 40.5062 12.93ZM45.9962 18.18C45.8162 18.81 45.1562 18.81 45.1562 18.81C43.7462 18.81 43.7462 16.83 43.7462 16.83V12.03C43.7462 8.49 42.7862 6.03 39.1862 6.03C39.1862 6.03 37.6562 5.94 36.3362 6.63C34.7162 7.5 34.2662 8.34 33.9962 8.82C33.7262 9.3 33.7562 9.96 34.1162 10.47C34.5962 11.16 35.5862 11.31 36.2762 10.83C36.9662 10.32 37.1462 9.36 36.6362 8.67C36.3662 8.31 36.0362 8.13 35.6162 8.07C35.4362 8.04 35.5862 7.5 36.6362 6.96C38.8862 5.88 40.5062 7.53 40.5062 10.62V12.42C35.3162 13.74 32.7962 14.22 32.7962 17.37C32.7962 20.43 36.2462 20.43 36.2462 20.43C38.3462 20.43 40.1162 19.32 40.5362 17.94C40.8062 20.46 43.2962 20.43 43.2962 20.43C45.0362 20.43 46.2362 19.29 46.4462 18.36L45.9962 18.18Z" fill="#33758A"/>
</svg>
