<?xml version="1.0" encoding="utf-8"?>
<!-- Generator: Adobe Illustrator 25.2.1, SVG Export Plug-In . SVG Version: 6.00 Build 0)  -->
<svg version="1.1" id="Bold" xmlns="http://www.w3.org/2000/svg" xmlns:xlink="http://www.w3.org/1999/xlink" x="0px" y="0px"
	 viewBox="0 0 48 48" style="enable-background:new 0 0 48 48;" xml:space="preserve">
<style type="text/css">
	.st0{fill:#FFFFFF;}
</style>
<path class="st0" d="M24,0C10.7,0,0,10.7,0,24s10.7,24,24,24s24-10.7,24-24S37.3,0,24,0z M37.6,13.7l-2.2,2.1
	c-0.2,0.1-0.3,0.3-0.4,0.6v15.2c-0.1,0.2,0,0.5,0.2,0.6l2.1,2.1v0.4H26.6v-0.5l2.2-2.1c0.2-0.2,0.2-0.3,0.2-0.6V19.2l-6.1,15.5h-0.8
	L15,19.2v10.4c-0.1,0.4,0.1,0.9,0.4,1.2l2.9,3.4v0.4h-8.1v-0.4l2.9-3.5c0.3-0.3,0.5-0.8,0.4-1.2v-12c0.1-0.3-0.1-0.7-0.3-0.9l-2.5-3
	v-0.4h7.9l6.1,13.3l5.4-13.3h7.5V13.7z"/>
</svg>
